<svg width="255" height="264" viewBox="0 0 255 264" fill="none" xmlns="http://www.w3.org/2000/svg">
<path d="M126.694 187.545C157.179 187.545 181.892 162.993 181.892 132.707C181.892 102.42 157.179 77.8684 126.694 77.8684C96.2081 77.8684 71.4947 102.42 71.4947 132.707C71.4947 162.993 96.2081 187.545 126.694 187.545Z" stroke="#6059F7" stroke-width="3"/>
<path d="M175.098 215.37C183.576 210.424 194.88 209.717 204.065 213.957L223.141 222.435C236.565 208.304 247.163 190.641 252.815 170.859L235.859 158.848C227.38 153.196 223.141 143.304 223.141 133.413C223.141 123.522 228.087 113.63 235.859 107.978L252.815 95.9674C247.163 76.1848 236.565 59.2283 223.141 44.3913L204.065 52.8696C194.88 57.1087 184.283 56.4022 175.098 51.4565C165.913 46.5109 160.261 37.3261 159.554 27.4348L156.728 5.53261C146.837 3.41304 136.946 2 127.054 2C117.163 2 106.565 3.41304 97.3804 5.53261" stroke="#6059F7" stroke-width="3" stroke-linecap="round" stroke-linejoin="round"/>
<path d="M79.7174 50.0435C71.2391 54.9891 59.9348 55.6957 50.75 51.4565L31.6739 42.9783C18.25 57.1087 7.65217 74.7718 2 94.5544L18.9565 106.565C27.4348 112.217 31.6739 122.109 31.6739 132C31.6739 141.891 26.7283 151.783 18.9565 157.435L2 169.446C7.65217 189.228 18.25 206.185 31.6739 221.022L50.75 212.544C59.9348 208.304 70.5326 209.011 79.7174 213.957C88.9022 218.902 94.5544 228.087 95.2609 237.978L97.3804 258.467C107.272 260.587 117.163 262 127.054 262C136.946 262 147.544 260.587 156.728 258.467" stroke="#6059F7" stroke-width="3" stroke-linecap="round" stroke-linejoin="round"/>
<path d="M127.054 77.8684V91.2172" stroke="#6059F7" stroke-width="3" stroke-linecap="round"/>
<path d="M127.054 174.557V187.905" stroke="#6059F7" stroke-width="3" stroke-linecap="round"/>
<path d="M182.073 132.887L168.724 132.887" stroke="#6059F7" stroke-width="3" stroke-linecap="round"/>
<path d="M85.3846 132.887L72.0359 132.887" stroke="#6059F7" stroke-width="3" stroke-linecap="round"/>
<path d="M145.318 118.705C144.381 117.765 142.859 117.765 141.922 118.705L122.99 137.724C121.035 139.687 117.857 139.687 115.903 137.724L111.078 132.877C110.141 131.936 108.619 131.936 107.682 132.877V132.877C106.752 133.811 106.752 135.322 107.682 136.257L117.756 146.376V146.376C118.7 147.283 120.192 147.283 121.136 146.376V146.376L145.318 122.085C146.248 121.151 146.248 119.64 145.318 118.705V118.705Z" fill="#6059F7"/>
</svg>
